<svg width="400" height="370" viewBox="0 0 400 370" fill="none" xmlns="http://www.w3.org/2000/svg">
<path d="M39.3174 154.633C39.3174 138.59 53.4608 126.228 69.3592 128.374V128.374C82.5043 130.148 92.3123 141.369 92.3123 154.633V314.459C92.3123 329.093 80.4489 340.956 65.8148 340.956V340.956C51.1807 340.956 39.3174 329.093 39.3174 314.459V154.633Z" fill="#71C4EF"/>
<rect width="59.4961" height="144.307" rx="29.748" transform="matrix(0.6946 -0.719396 0.690743 0.7231 26 154.857)" fill="#313D44"/>
<rect width="60.314" height="192.304" rx="30.157" transform="matrix(0.629604 0.776916 -0.751222 0.66005 317.249 16)" fill="#FFFEFB"/>
<path d="M287 55.5C287 39.2076 300.208 26 316.5 26V26C332.792 26 346 39.2076 346 55.5V247.5C346 263.792 332.792 277 316.5 277V277C300.208 277 287 263.792 287 247.5V55.5Z" fill="#71C4EF"/>
<rect width="60.314" height="158.343" rx="30.157" transform="matrix(0.629604 0.776916 -0.751222 0.66005 205.374 114.035)" fill="#FFFEFB"/>
<rect x="172.786" y="126.363" width="58.8832" height="216.637" rx="29.4416" fill="#71C4EF"/>
<rect width="61.3114" height="169.654" rx="30.6557" transform="matrix(-0.0209803 -0.99978 0.999741 -0.0227463 176.573 229.088)" fill="#52616B"/>
<rect width="60.314" height="152.907" rx="30.157" transform="matrix(0.629604 0.776916 -0.751222 0.66005 323.867 10)" fill="#FFFEFB"/>
</svg>
